<svg width="855" height="445" viewBox="0 0 855 445" fill="none" xmlns="http://www.w3.org/2000/svg">
<path d="M68.4913 134.775C68.1213 126.08 68.1213 112.02 46.1063 112.02L46.8463 109.615C79.9613 109.615 84.7713 123.305 84.9563 128.67L85.1413 136.995C85.6963 158.085 91.2463 167.705 94.5763 167.705L94.2063 169H79.9613C71.0813 169 69.4163 161.045 68.6763 139.585L68.4913 134.775ZM3.00126 169L3.37126 167.705C6.70126 167.705 13.1763 161.415 18.5413 141.435L37.9663 68.73C43.3313 48.75 40.1863 42.46 36.8563 42.46L37.2263 41.165H62.2013L35.3763 141.435C30.0113 161.415 33.1563 167.705 36.4863 167.705L36.1163 169H3.00126ZM58.6863 43.94L59.4263 41.165H76.0763C99.9413 41.165 120.846 46.715 112.891 76.685C104.751 106.655 80.8863 112.39 57.0213 112.205L40.3713 112.02L41.1113 109.615H57.7613C71.4513 109.615 88.1013 106.285 96.0563 76.685C104.011 46.9 89.0263 43.94 75.3363 43.94H58.6863ZM125.69 166.41H155.475C168.609 166.41 173.975 155.125 175.27 152.905H176.565L168.795 169H94.4245L94.7945 167.705C98.1245 167.705 104.599 161.415 109.964 141.435L129.39 68.73C134.754 48.75 131.609 42.46 128.28 42.46L128.649 41.165H203.02L202.28 57.26H200.985C200.8 55.04 201.355 43.755 188.22 43.755H158.435C154.735 43.755 152.515 45.605 151.405 49.305L138.269 98.33C137.344 102.03 138.639 103.88 142.34 103.88H160.469C173.605 103.88 176.935 90.375 176.935 90.375H178.23L170.275 119.975H168.98C168.98 119.975 173.05 106.47 159.915 106.47H141.785C138.085 106.47 135.679 108.32 134.754 112.02L121.619 160.86C120.509 164.56 121.989 166.41 125.69 166.41ZM204.828 166.225H208.343C226.473 166.225 252.003 153.46 264.768 105.175C277.718 56.89 259.218 43.94 241.088 43.94H237.573C234.243 43.94 231.468 46.16 230.543 49.49L200.758 160.675C199.833 164.005 201.498 166.225 204.828 166.225ZM173.563 169L173.933 167.705C177.263 167.705 183.738 161.415 189.103 141.435L208.528 68.73C213.893 48.75 210.748 42.46 207.418 42.46L207.788 41.165H241.828C277.348 41.165 291.963 66.695 281.603 105.175C271.428 143.655 243.123 169 207.603 169H173.563ZM262.637 169L263.007 167.705C266.337 167.705 272.812 161.415 278.177 141.435L297.602 68.73C302.967 48.75 299.822 42.46 296.492 42.46L296.862 41.165H329.977L329.607 42.46C326.277 42.46 319.802 48.75 314.437 68.73L295.012 141.435C289.647 161.415 292.792 167.705 296.122 167.705L295.752 169H262.637ZM364.448 134.775C364.078 126.08 364.078 112.02 342.063 112.02L342.803 109.615C375.918 109.615 380.728 123.305 380.913 128.67L381.098 136.995C381.653 158.085 387.203 167.705 390.533 167.705L390.163 169H375.918C367.038 169 365.373 161.045 364.633 139.585L364.448 134.775ZM298.958 169L299.328 167.705C302.658 167.705 309.133 161.415 314.498 141.435L333.923 68.73C339.288 48.75 336.143 42.46 332.813 42.46L333.183 41.165H358.158L331.333 141.435C325.968 161.415 329.113 167.705 332.443 167.705L332.073 169H298.958ZM354.643 43.94L355.383 41.165H372.033C395.898 41.165 416.803 46.715 408.848 76.685C400.708 106.655 376.843 112.39 352.978 112.205L336.328 112.02L337.068 109.615H353.718C367.408 109.615 384.058 106.285 392.013 76.685C399.968 46.9 384.983 43.94 371.293 43.94H354.643ZM421.646 166.41H451.431C464.566 166.41 469.931 155.125 471.226 152.905H472.521L464.751 169H390.381L390.751 167.705C394.081 167.705 400.556 161.415 405.921 141.435L425.346 68.73C430.711 48.75 427.566 42.46 424.236 42.46L424.606 41.165H498.976L498.236 57.26H496.941C496.756 55.04 497.311 43.755 484.176 43.755H454.391C450.691 43.755 448.471 45.605 447.361 49.305L434.226 98.33C433.301 102.03 434.596 103.88 438.296 103.88H456.426C469.561 103.88 472.891 90.375 472.891 90.375H474.186L466.231 119.975H464.936C464.936 119.975 469.006 106.47 455.871 106.47H437.741C434.041 106.47 431.636 108.32 430.711 112.02L417.576 160.86C416.466 164.56 417.946 166.41 421.646 166.41ZM500.004 105.175C490.384 141.435 498.524 168.26 516.839 168.26C536.634 168.26 547.179 149.39 550.139 138.29C551.434 134.035 554.394 129.78 561.054 129.78C567.529 129.78 568.084 134.035 566.049 141.25C563.274 151.795 544.589 171.035 516.469 171.035C481.504 171.035 472.809 143.655 482.984 105.175C493.344 66.695 516.839 39.315 551.804 39.315C579.924 39.315 588.249 58.555 585.474 69.1C583.439 76.315 580.664 80.57 574.189 80.57C567.529 80.57 566.789 76.315 567.899 72.06C570.859 60.96 570.489 42.09 550.694 42.09C532.379 42.09 509.809 68.915 500.004 105.175ZM604.783 141.435L629.388 49.305C630.313 45.975 628.648 43.755 625.318 43.755H605.338C592.203 43.755 586.838 55.04 585.543 57.26H584.248L592.018 41.165H688.033L687.293 57.26H685.998C685.813 55.04 686.368 43.755 673.233 43.755H653.253C649.923 43.755 647.148 45.975 646.223 49.305L621.618 141.435C616.253 161.415 619.398 167.705 622.728 167.705L622.358 169H589.243L589.613 167.705C592.943 167.705 599.418 161.415 604.783 141.435ZM687.786 166.41H717.571C730.706 166.41 736.071 155.125 737.366 152.905H738.661L730.891 169H656.521L656.891 167.705C660.221 167.705 666.696 161.415 672.061 141.435L691.486 68.73C696.851 48.75 693.706 42.46 690.376 42.46L690.746 41.165H765.116L764.376 57.26H763.081C762.896 55.04 763.451 43.755 750.316 43.755H720.531C716.831 43.755 714.611 45.605 713.501 49.305L700.366 98.33C699.441 102.03 700.736 103.88 704.436 103.88H722.566C735.701 103.88 739.031 90.375 739.031 90.375H740.326L732.371 119.975H731.076C731.076 119.975 735.146 106.47 722.011 106.47H703.881C700.181 106.47 697.776 108.32 696.851 112.02L683.716 160.86C682.606 164.56 684.086 166.41 687.786 166.41ZM766.924 166.225H770.439C788.569 166.225 814.099 153.46 826.864 105.175C839.814 56.89 821.314 43.94 803.184 43.94H799.669C796.339 43.94 793.564 46.16 792.639 49.49L762.854 160.675C761.929 164.005 763.594 166.225 766.924 166.225ZM735.659 169L736.029 167.705C739.359 167.705 745.834 161.415 751.199 141.435L770.624 68.73C775.989 48.75 772.844 42.46 769.514 42.46L769.884 41.165H803.924C839.444 41.165 854.059 66.695 843.699 105.175C833.524 143.655 805.219 169 769.699 169H735.659ZM305.658 300L302.783 232.25C302.283 219 299.533 214.25 297.283 214.25L297.408 213.625H314.408L317.533 279.125L305.658 300ZM326.033 300L326.283 299.125C328.533 299.125 332.908 294.875 336.533 281.375L354.658 213.625H371.533L371.283 214.5C369.033 214.5 364.658 218.75 361.033 232.25L347.908 281.375C344.283 294.875 346.408 299.125 348.658 299.125L348.408 300H326.033ZM302.033 216.125H303.783L286.283 281.375C282.658 294.875 284.783 299.125 287.033 299.125L286.783 300H274.033L274.283 299.125C276.533 299.125 280.908 294.875 284.533 281.375L302.033 216.125ZM354.658 213.625H356.533L307.408 300H305.658L354.658 213.625ZM434.129 232.25L423.379 272.375C419.004 288.875 406.504 301.375 388.504 301.375C367.004 301.375 361.379 287.875 365.129 273.875L376.254 232.25C379.879 218.75 377.754 214.5 375.504 214.5L375.754 213.625H398.129L397.879 214.5C395.629 214.5 391.254 218.75 387.629 232.25L376.629 273.625C373.004 286.875 376.379 297 392.004 297C403.129 297 416.629 288.125 420.879 272.375L431.629 232.25C435.254 218.75 433.129 214.5 430.879 214.5L431.129 213.625H444.629L444.379 214.5C442.129 214.5 437.754 218.75 434.129 232.25ZM446.681 299.625C456.431 299.625 464.556 294.125 466.056 288.125C472.306 264.875 432.806 256 438.681 234.125C442.306 220.75 454.681 212.375 470.056 212.375C488.806 212.375 493.181 223.375 491.306 230.5C490.056 235.375 488.056 238.25 483.681 238.25C479.181 238.25 478.806 235.375 479.556 232.5C481.556 225 482.931 214.125 469.556 214.125C459.806 214.125 452.556 219.625 450.931 225.625C444.681 249 484.306 257.75 478.431 279.625C474.806 293 461.556 301.375 446.181 301.375C424.431 301.375 423.306 286.625 425.181 279.5C426.431 274.625 428.806 272.25 432.556 272.25C437.056 272.25 437.556 275.125 436.806 278C434.806 285.5 430.306 299.625 446.681 299.625ZM473.145 300L473.395 299.125C475.645 299.125 480.02 294.875 483.645 281.375L496.77 232.25C500.395 218.75 498.27 214.5 496.02 214.5L496.27 213.625H518.645L518.395 214.5C516.145 214.5 511.77 218.75 508.145 232.25L495.02 281.375C491.395 294.875 493.52 299.125 495.77 299.125L495.52 300H473.145ZM517.795 256.875C511.295 281.375 516.795 299.5 529.17 299.5C542.545 299.5 549.67 286.75 551.67 279.25C552.545 276.375 554.545 273.5 559.045 273.5C563.42 273.5 563.795 276.375 562.42 281.25C560.545 288.375 547.92 301.375 528.92 301.375C505.295 301.375 499.42 282.875 506.295 256.875C513.295 230.875 529.17 212.375 552.795 212.375C571.795 212.375 577.42 225.375 575.545 232.5C574.17 237.375 572.295 240.25 567.92 240.25C563.42 240.25 562.92 237.375 563.67 234.5C565.67 227 565.42 214.25 552.045 214.25C539.67 214.25 524.42 232.375 517.795 256.875Z" fill="white"/>
<path d="M345.893 432C345.893 432.09 346.073 432.03 346.433 431.82C346.793 431.58 347.108 431.13 347.378 430.47C347.678 429.78 347.828 428.79 347.828 427.5V405.405C347.828 404.175 347.678 403.245 347.378 402.615C347.108 401.955 346.793 401.505 346.433 401.265C346.073 401.025 345.893 400.95 345.893 401.04H362.183V405.54C361.643 403.74 360.023 402.84 357.323 402.84H351.068V415.62H358.808C359.408 415.62 359.918 415.53 360.338 415.35C360.758 415.14 361.073 414.93 361.283 414.72C361.493 414.51 361.613 414.375 361.643 414.315V418.68C361.613 418.62 361.493 418.485 361.283 418.275C361.073 418.065 360.758 417.87 360.338 417.69C359.948 417.51 359.453 417.42 358.853 417.42H351.068V430.2H358.088C359.438 430.2 360.593 429.93 361.553 429.39C362.543 428.82 363.248 428.1 363.668 427.23L362.858 432H345.893ZM376.058 432.54C374.498 432.54 372.998 432.33 371.558 431.91C370.118 431.46 368.828 430.845 367.688 430.065V424.62C368.468 426.63 369.653 428.16 371.243 429.21C372.863 430.23 374.543 430.74 376.283 430.74C378.023 430.74 379.478 430.17 380.648 429.03C381.818 427.86 382.403 426.42 382.403 424.71C382.403 423.57 382.163 422.595 381.683 421.785C381.233 420.975 380.498 420.225 379.478 419.535C378.458 418.815 377.018 418.02 375.158 417.15C372.548 415.95 370.643 414.705 369.443 413.415C368.273 412.095 367.688 410.505 367.688 408.645C367.688 407.055 368.063 405.645 368.813 404.415C369.593 403.155 370.628 402.195 371.918 401.535C373.238 400.845 374.678 400.5 376.238 400.5C377.588 400.5 378.908 400.695 380.198 401.085C381.488 401.445 382.688 401.97 383.798 402.66V407.52C383.078 405.87 381.983 404.595 380.513 403.695C379.073 402.765 377.603 402.3 376.103 402.3C374.393 402.3 373.013 402.855 371.963 403.965C370.913 405.075 370.388 406.395 370.388 407.925C370.388 409.035 370.703 409.995 371.333 410.805C371.963 411.585 372.728 412.245 373.628 412.785C374.558 413.325 375.848 413.985 377.498 414.765C379.178 415.575 380.558 416.325 381.638 417.015C382.718 417.705 383.618 418.605 384.338 419.715C385.058 420.825 385.418 422.175 385.418 423.765C385.418 425.565 384.983 427.125 384.113 428.445C383.273 429.765 382.133 430.785 380.693 431.505C379.283 432.195 377.738 432.54 376.058 432.54ZM392.325 402.84C391.005 402.84 389.91 403.095 389.04 403.605C388.17 404.115 387.54 404.76 387.15 405.54L387.78 401.04H409.11L409.74 405.54C409.35 404.76 408.72 404.115 407.85 403.605C406.98 403.095 405.885 402.84 404.565 402.84H400.065V427.815C400.065 429.015 400.215 429.93 400.515 430.56C400.815 431.19 401.145 431.61 401.505 431.82C401.865 432.03 402.045 432.09 402.045 432H394.89C394.89 432.09 395.07 432.03 395.43 431.82C395.79 431.61 396.105 431.205 396.375 430.605C396.675 429.975 396.825 429.045 396.825 427.815V402.84H392.325ZM411.774 432.45C411.174 432.45 410.634 432.255 410.154 431.865C409.704 431.445 409.479 430.875 409.479 430.155C409.479 429.435 409.704 428.88 410.154 428.49C410.604 428.1 411.144 427.905 411.774 427.905C412.404 427.905 412.944 428.1 413.394 428.49C413.844 428.88 414.069 429.435 414.069 430.155C414.069 430.875 413.829 431.445 413.349 431.865C412.899 432.255 412.374 432.45 411.774 432.45ZM430.031 427.815C432.611 424.725 434.456 422.49 435.566 421.11C436.706 419.7 437.636 418.38 438.356 417.15C439.136 415.83 439.691 414.57 440.021 413.37C440.381 412.14 440.561 410.895 440.561 409.635C440.561 408.285 440.291 407.13 439.751 406.17C439.211 405.18 438.491 404.43 437.591 403.92C436.721 403.41 435.776 403.155 434.756 403.155C432.866 403.155 431.336 403.845 430.166 405.225C429.026 406.605 428.456 408.345 428.456 410.445C427.916 409.695 427.646 408.705 427.646 407.475C427.646 406.335 427.931 405.225 428.501 404.145C429.101 403.065 429.986 402.195 431.156 401.535C432.326 400.845 433.736 400.5 435.386 400.5C436.916 400.5 438.311 400.86 439.571 401.58C440.861 402.3 441.881 403.32 442.631 404.64C443.411 405.96 443.801 407.49 443.801 409.23C443.801 412.05 442.676 414.975 440.426 418.005C438.326 420.885 435.656 424.14 432.416 427.77L431.066 429.3H440.201C441.761 429.3 442.931 429.075 443.711 428.625C444.491 428.145 445.016 427.68 445.286 427.23L444.431 432H426.521L430.031 427.815ZM447.422 417.375C447.422 414.015 447.827 411.06 448.637 408.51C449.447 405.93 450.557 403.95 451.967 402.57C453.407 401.19 455.027 400.5 456.827 400.5C458.597 400.5 460.187 401.1 461.597 402.3C463.007 403.5 464.117 405.24 464.927 407.52C465.737 409.8 466.142 412.515 466.142 415.665C466.142 419.025 465.737 421.995 464.927 424.575C464.117 427.125 462.992 429.09 461.552 430.47C460.142 431.85 458.537 432.54 456.737 432.54C454.967 432.54 453.377 431.94 451.967 430.74C450.557 429.54 449.447 427.8 448.637 425.52C447.827 423.24 447.422 420.525 447.422 417.375ZM462.902 417.87C462.902 414.57 462.617 411.735 462.047 409.365C461.477 406.995 460.697 405.21 459.707 404.01C458.717 402.78 457.607 402.15 456.377 402.12C455.267 402.12 454.277 402.66 453.407 403.74C452.537 404.82 451.862 406.35 451.382 408.33C450.902 410.28 450.662 412.56 450.662 415.17C450.662 418.47 450.947 421.305 451.517 423.675C452.087 426.045 452.867 427.845 453.857 429.075C454.847 430.305 455.957 430.92 457.187 430.92C458.297 430.92 459.287 430.38 460.157 429.3C461.027 428.22 461.702 426.705 462.182 424.755C462.662 422.775 462.902 420.48 462.902 417.87ZM471.08 427.815C473.66 424.725 475.505 422.49 476.615 421.11C477.755 419.7 478.685 418.38 479.405 417.15C480.185 415.83 480.74 414.57 481.07 413.37C481.43 412.14 481.61 410.895 481.61 409.635C481.61 408.285 481.34 407.13 480.8 406.17C480.26 405.18 479.54 404.43 478.64 403.92C477.77 403.41 476.825 403.155 475.805 403.155C473.915 403.155 472.385 403.845 471.215 405.225C470.075 406.605 469.505 408.345 469.505 410.445C468.965 409.695 468.695 408.705 468.695 407.475C468.695 406.335 468.98 405.225 469.55 404.145C470.15 403.065 471.035 402.195 472.205 401.535C473.375 400.845 474.785 400.5 476.435 400.5C477.965 400.5 479.36 400.86 480.62 401.58C481.91 402.3 482.93 403.32 483.68 404.64C484.46 405.96 484.85 407.49 484.85 409.23C484.85 412.05 483.725 414.975 481.475 418.005C479.375 420.885 476.705 424.14 473.465 427.77L472.115 429.3H481.25C482.81 429.3 483.98 429.075 484.76 428.625C485.54 428.145 486.065 427.68 486.335 427.23L485.48 432H467.57L471.08 427.815ZM498.281 414.45C500.591 415.02 502.346 416.085 503.546 417.645C504.776 419.175 505.391 420.9 505.391 422.82C505.391 424.53 504.986 426.135 504.176 427.635C503.396 429.105 502.241 430.29 500.711 431.19C499.211 432.09 497.441 432.54 495.401 432.54C493.811 432.54 492.461 432.33 491.351 431.91C490.271 431.49 489.161 430.92 488.021 430.2V426.6C488.531 427.71 489.461 428.685 490.811 429.525C492.161 430.365 493.661 430.785 495.311 430.785C497.501 430.785 499.181 430.125 500.351 428.805C501.551 427.455 502.151 425.79 502.151 423.81C502.151 421.47 501.431 419.67 499.991 418.41C498.551 417.15 496.736 416.52 494.546 416.52H493.691V415.8C495.671 415.11 497.276 414.135 498.506 412.875C499.736 411.585 500.351 410.1 500.351 408.42C500.351 406.89 499.901 405.645 499.001 404.685C498.131 403.695 496.916 403.2 495.356 403.2C494.396 403.2 493.496 403.44 492.656 403.92C491.816 404.4 491.126 405.105 490.586 406.035C490.076 406.935 489.821 408.015 489.821 409.275C489.281 408.555 489.011 407.64 489.011 406.53C489.011 404.7 489.686 403.245 491.036 402.165C492.386 401.055 494.006 400.5 495.896 400.5C497.966 400.5 499.706 401.1 501.116 402.3C502.526 403.5 503.231 405.12 503.231 407.16C503.231 408.48 502.781 409.815 501.881 411.165C501.011 412.515 499.811 413.61 498.281 414.45Z" fill="white"/>
<path d="M311.392 2.46836C312.202 1.4061 313.805 1.42109 314.595 2.49832L341.855 39.6762C342.829 41.0042 341.87 42.8741 340.224 42.8587L285.013 42.3424C283.366 42.327 282.443 40.4394 283.441 39.1299L311.392 2.46836Z" fill="white"/>
<path d="M486.097 323.881C485.297 324.943 483.703 324.943 482.903 323.881L466.563 302.204C465.57 300.886 466.51 299 468.16 299H500.84C502.49 299 503.43 300.886 502.437 302.204L486.097 323.881Z" fill="white"/>
</svg>
