<svg width="855" height="416" viewBox="0 0 855 416" fill="none" xmlns="http://www.w3.org/2000/svg">
<path d="M68.4913 105.775C68.1213 97.08 68.1213 83.02 46.1063 83.02L46.8463 80.615C79.9613 80.615 84.7713 94.305 84.9563 99.67L85.1413 107.995C85.6963 129.085 91.2463 138.705 94.5763 138.705L94.2063 140H79.9613C71.0813 140 69.4163 132.045 68.6763 110.585L68.4913 105.775ZM3.00126 140L3.37126 138.705C6.70126 138.705 13.1763 132.415 18.5413 112.435L37.9663 39.73C43.3313 19.75 40.1863 13.46 36.8563 13.46L37.2263 12.165H62.2013L35.3763 112.435C30.0113 132.415 33.1563 138.705 36.4863 138.705L36.1163 140H3.00126ZM58.6863 14.94L59.4263 12.165H76.0763C99.9413 12.165 120.846 17.715 112.891 47.685C104.751 77.655 80.8863 83.39 57.0213 83.205L40.3713 83.02L41.1113 80.615H57.7613C71.4513 80.615 88.1013 77.285 96.0563 47.685C104.011 17.9 89.0263 14.94 75.3363 14.94H58.6863ZM125.69 137.41H155.475C168.609 137.41 173.975 126.125 175.27 123.905H176.565L168.795 140H94.4245L94.7945 138.705C98.1245 138.705 104.599 132.415 109.964 112.435L129.39 39.73C134.754 19.75 131.609 13.46 128.28 13.46L128.649 12.165H203.02L202.28 28.26H200.985C200.8 26.04 201.355 14.755 188.22 14.755H158.435C154.735 14.755 152.515 16.605 151.405 20.305L138.269 69.33C137.344 73.03 138.639 74.88 142.34 74.88H160.469C173.605 74.88 176.935 61.375 176.935 61.375H178.23L170.275 90.975H168.98C168.98 90.975 173.05 77.47 159.915 77.47H141.785C138.085 77.47 135.679 79.32 134.754 83.02L121.619 131.86C120.509 135.56 121.989 137.41 125.69 137.41ZM204.828 137.225H208.343C226.473 137.225 252.003 124.46 264.768 76.175C277.718 27.89 259.218 14.94 241.088 14.94H237.573C234.243 14.94 231.468 17.16 230.543 20.49L200.758 131.675C199.833 135.005 201.498 137.225 204.828 137.225ZM173.563 140L173.933 138.705C177.263 138.705 183.738 132.415 189.103 112.435L208.528 39.73C213.893 19.75 210.748 13.46 207.418 13.46L207.788 12.165H241.828C277.348 12.165 291.963 37.695 281.603 76.175C271.428 114.655 243.123 140 207.603 140H173.563ZM262.637 140L263.007 138.705C266.337 138.705 272.812 132.415 278.177 112.435L297.602 39.73C302.967 19.75 299.822 13.46 296.492 13.46L296.862 12.165H329.977L329.607 13.46C326.277 13.46 319.802 19.75 314.437 39.73L295.012 112.435C289.647 132.415 292.792 138.705 296.122 138.705L295.752 140H262.637ZM364.448 105.775C364.078 97.08 364.078 83.02 342.063 83.02L342.803 80.615C375.918 80.615 380.728 94.305 380.913 99.67L381.098 107.995C381.653 129.085 387.203 138.705 390.533 138.705L390.163 140H375.918C367.038 140 365.373 132.045 364.633 110.585L364.448 105.775ZM298.958 140L299.328 138.705C302.658 138.705 309.133 132.415 314.498 112.435L333.923 39.73C339.288 19.75 336.143 13.46 332.813 13.46L333.183 12.165H358.158L331.333 112.435C325.968 132.415 329.113 138.705 332.443 138.705L332.073 140H298.958ZM354.643 14.94L355.383 12.165H372.033C395.898 12.165 416.803 17.715 408.848 47.685C400.708 77.655 376.843 83.39 352.978 83.205L336.328 83.02L337.068 80.615H353.718C367.408 80.615 384.058 77.285 392.013 47.685C399.968 17.9 384.983 14.94 371.293 14.94H354.643ZM421.646 137.41H451.431C464.566 137.41 469.931 126.125 471.226 123.905H472.521L464.751 140H390.381L390.751 138.705C394.081 138.705 400.556 132.415 405.921 112.435L425.346 39.73C430.711 19.75 427.566 13.46 424.236 13.46L424.606 12.165H498.976L498.236 28.26H496.941C496.756 26.04 497.311 14.755 484.176 14.755H454.391C450.691 14.755 448.471 16.605 447.361 20.305L434.226 69.33C433.301 73.03 434.596 74.88 438.296 74.88H456.426C469.561 74.88 472.891 61.375 472.891 61.375H474.186L466.231 90.975H464.936C464.936 90.975 469.006 77.47 455.871 77.47H437.741C434.041 77.47 431.636 79.32 430.711 83.02L417.576 131.86C416.466 135.56 417.946 137.41 421.646 137.41ZM500.004 76.175C490.384 112.435 498.524 139.26 516.839 139.26C536.634 139.26 547.179 120.39 550.139 109.29C551.434 105.035 554.394 100.78 561.054 100.78C567.529 100.78 568.084 105.035 566.049 112.25C563.274 122.795 544.589 142.035 516.469 142.035C481.504 142.035 472.809 114.655 482.984 76.175C493.344 37.695 516.839 10.315 551.804 10.315C579.924 10.315 588.249 29.555 585.474 40.1C583.439 47.315 580.664 51.57 574.189 51.57C567.529 51.57 566.789 47.315 567.899 43.06C570.859 31.96 570.489 13.09 550.694 13.09C532.379 13.09 509.809 39.915 500.004 76.175ZM604.783 112.435L629.388 20.305C630.313 16.975 628.648 14.755 625.318 14.755H605.338C592.203 14.755 586.838 26.04 585.543 28.26H584.248L592.018 12.165H688.033L687.293 28.26H685.998C685.813 26.04 686.368 14.755 673.233 14.755H653.253C649.923 14.755 647.148 16.975 646.223 20.305L621.618 112.435C616.253 132.415 619.398 138.705 622.728 138.705L622.358 140H589.243L589.613 138.705C592.943 138.705 599.418 132.415 604.783 112.435ZM687.786 137.41H717.571C730.706 137.41 736.071 126.125 737.366 123.905H738.661L730.891 140H656.521L656.891 138.705C660.221 138.705 666.696 132.415 672.061 112.435L691.486 39.73C696.851 19.75 693.706 13.46 690.376 13.46L690.746 12.165H765.116L764.376 28.26H763.081C762.896 26.04 763.451 14.755 750.316 14.755H720.531C716.831 14.755 714.611 16.605 713.501 20.305L700.366 69.33C699.441 73.03 700.736 74.88 704.436 74.88H722.566C735.701 74.88 739.031 61.375 739.031 61.375H740.326L732.371 90.975H731.076C731.076 90.975 735.146 77.47 722.011 77.47H703.881C700.181 77.47 697.776 79.32 696.851 83.02L683.716 131.86C682.606 135.56 684.086 137.41 687.786 137.41ZM766.924 137.225H770.439C788.569 137.225 814.099 124.46 826.864 76.175C839.814 27.89 821.314 14.94 803.184 14.94H799.669C796.339 14.94 793.564 17.16 792.639 20.49L762.854 131.675C761.929 135.005 763.594 137.225 766.924 137.225ZM735.659 140L736.029 138.705C739.359 138.705 745.834 132.415 751.199 112.435L770.624 39.73C775.989 19.75 772.844 13.46 769.514 13.46L769.884 12.165H803.924C839.444 12.165 854.059 37.695 843.699 76.175C833.524 114.655 805.219 140 769.699 140H735.659ZM305.658 271L302.783 203.25C302.283 190 299.533 185.25 297.283 185.25L297.408 184.625H314.408L317.533 250.125L305.658 271ZM326.033 271L326.283 270.125C328.533 270.125 332.908 265.875 336.533 252.375L354.658 184.625H371.533L371.283 185.5C369.033 185.5 364.658 189.75 361.033 203.25L347.908 252.375C344.283 265.875 346.408 270.125 348.658 270.125L348.408 271H326.033ZM302.033 187.125H303.783L286.283 252.375C282.658 265.875 284.783 270.125 287.033 270.125L286.783 271H274.033L274.283 270.125C276.533 270.125 280.908 265.875 284.533 252.375L302.033 187.125ZM354.658 184.625H356.533L307.408 271H305.658L354.658 184.625ZM434.129 203.25L423.379 243.375C419.004 259.875 406.504 272.375 388.504 272.375C367.004 272.375 361.379 258.875 365.129 244.875L376.254 203.25C379.879 189.75 377.754 185.5 375.504 185.5L375.754 184.625H398.129L397.879 185.5C395.629 185.5 391.254 189.75 387.629 203.25L376.629 244.625C373.004 257.875 376.379 268 392.004 268C403.129 268 416.629 259.125 420.879 243.375L431.629 203.25C435.254 189.75 433.129 185.5 430.879 185.5L431.129 184.625H444.629L444.379 185.5C442.129 185.5 437.754 189.75 434.129 203.25ZM446.681 270.625C456.431 270.625 464.556 265.125 466.056 259.125C472.306 235.875 432.806 227 438.681 205.125C442.306 191.75 454.681 183.375 470.056 183.375C488.806 183.375 493.181 194.375 491.306 201.5C490.056 206.375 488.056 209.25 483.681 209.25C479.181 209.25 478.806 206.375 479.556 203.5C481.556 196 482.931 185.125 469.556 185.125C459.806 185.125 452.556 190.625 450.931 196.625C444.681 220 484.306 228.75 478.431 250.625C474.806 264 461.556 272.375 446.181 272.375C424.431 272.375 423.306 257.625 425.181 250.5C426.431 245.625 428.806 243.25 432.556 243.25C437.056 243.25 437.556 246.125 436.806 249C434.806 256.5 430.306 270.625 446.681 270.625ZM473.145 271L473.395 270.125C475.645 270.125 480.02 265.875 483.645 252.375L496.77 203.25C500.395 189.75 498.27 185.5 496.02 185.5L496.27 184.625H518.645L518.395 185.5C516.145 185.5 511.77 189.75 508.145 203.25L495.02 252.375C491.395 265.875 493.52 270.125 495.77 270.125L495.52 271H473.145ZM517.795 227.875C511.295 252.375 516.795 270.5 529.17 270.5C542.545 270.5 549.67 257.75 551.67 250.25C552.545 247.375 554.545 244.5 559.045 244.5C563.42 244.5 563.795 247.375 562.42 252.25C560.545 259.375 547.92 272.375 528.92 272.375C505.295 272.375 499.42 253.875 506.295 227.875C513.295 201.875 529.17 183.375 552.795 183.375C571.795 183.375 577.42 196.375 575.545 203.5C574.17 208.375 572.295 211.25 567.92 211.25C563.42 211.25 562.92 208.375 563.67 205.5C565.67 198 565.42 185.25 552.045 185.25C539.67 185.25 524.42 203.375 517.795 227.875Z" fill="white"/>
<path d="M345.893 403C345.893 403.09 346.073 403.03 346.433 402.82C346.793 402.58 347.108 402.13 347.378 401.47C347.678 400.78 347.828 399.79 347.828 398.5V376.405C347.828 375.175 347.678 374.245 347.378 373.615C347.108 372.955 346.793 372.505 346.433 372.265C346.073 372.025 345.893 371.95 345.893 372.04H362.183V376.54C361.643 374.74 360.023 373.84 357.323 373.84H351.068V386.62H358.808C359.408 386.62 359.918 386.53 360.338 386.35C360.758 386.14 361.073 385.93 361.283 385.72C361.493 385.51 361.613 385.375 361.643 385.315V389.68C361.613 389.62 361.493 389.485 361.283 389.275C361.073 389.065 360.758 388.87 360.338 388.69C359.948 388.51 359.453 388.42 358.853 388.42H351.068V401.2H358.088C359.438 401.2 360.593 400.93 361.553 400.39C362.543 399.82 363.248 399.1 363.668 398.23L362.858 403H345.893ZM376.058 403.54C374.498 403.54 372.998 403.33 371.558 402.91C370.118 402.46 368.828 401.845 367.688 401.065V395.62C368.468 397.63 369.653 399.16 371.243 400.21C372.863 401.23 374.543 401.74 376.283 401.74C378.023 401.74 379.478 401.17 380.648 400.03C381.818 398.86 382.403 397.42 382.403 395.71C382.403 394.57 382.163 393.595 381.683 392.785C381.233 391.975 380.498 391.225 379.478 390.535C378.458 389.815 377.018 389.02 375.158 388.15C372.548 386.95 370.643 385.705 369.443 384.415C368.273 383.095 367.688 381.505 367.688 379.645C367.688 378.055 368.063 376.645 368.813 375.415C369.593 374.155 370.628 373.195 371.918 372.535C373.238 371.845 374.678 371.5 376.238 371.5C377.588 371.5 378.908 371.695 380.198 372.085C381.488 372.445 382.688 372.97 383.798 373.66V378.52C383.078 376.87 381.983 375.595 380.513 374.695C379.073 373.765 377.603 373.3 376.103 373.3C374.393 373.3 373.013 373.855 371.963 374.965C370.913 376.075 370.388 377.395 370.388 378.925C370.388 380.035 370.703 380.995 371.333 381.805C371.963 382.585 372.728 383.245 373.628 383.785C374.558 384.325 375.848 384.985 377.498 385.765C379.178 386.575 380.558 387.325 381.638 388.015C382.718 388.705 383.618 389.605 384.338 390.715C385.058 391.825 385.418 393.175 385.418 394.765C385.418 396.565 384.983 398.125 384.113 399.445C383.273 400.765 382.133 401.785 380.693 402.505C379.283 403.195 377.738 403.54 376.058 403.54ZM392.325 373.84C391.005 373.84 389.91 374.095 389.04 374.605C388.17 375.115 387.54 375.76 387.15 376.54L387.78 372.04H409.11L409.74 376.54C409.35 375.76 408.72 375.115 407.85 374.605C406.98 374.095 405.885 373.84 404.565 373.84H400.065V398.815C400.065 400.015 400.215 400.93 400.515 401.56C400.815 402.19 401.145 402.61 401.505 402.82C401.865 403.03 402.045 403.09 402.045 403H394.89C394.89 403.09 395.07 403.03 395.43 402.82C395.79 402.61 396.105 402.205 396.375 401.605C396.675 400.975 396.825 400.045 396.825 398.815V373.84H392.325ZM411.774 403.45C411.174 403.45 410.634 403.255 410.154 402.865C409.704 402.445 409.479 401.875 409.479 401.155C409.479 400.435 409.704 399.88 410.154 399.49C410.604 399.1 411.144 398.905 411.774 398.905C412.404 398.905 412.944 399.1 413.394 399.49C413.844 399.88 414.069 400.435 414.069 401.155C414.069 401.875 413.829 402.445 413.349 402.865C412.899 403.255 412.374 403.45 411.774 403.45ZM430.031 398.815C432.611 395.725 434.456 393.49 435.566 392.11C436.706 390.7 437.636 389.38 438.356 388.15C439.136 386.83 439.691 385.57 440.021 384.37C440.381 383.14 440.561 381.895 440.561 380.635C440.561 379.285 440.291 378.13 439.751 377.17C439.211 376.18 438.491 375.43 437.591 374.92C436.721 374.41 435.776 374.155 434.756 374.155C432.866 374.155 431.336 374.845 430.166 376.225C429.026 377.605 428.456 379.345 428.456 381.445C427.916 380.695 427.646 379.705 427.646 378.475C427.646 377.335 427.931 376.225 428.501 375.145C429.101 374.065 429.986 373.195 431.156 372.535C432.326 371.845 433.736 371.5 435.386 371.5C436.916 371.5 438.311 371.86 439.571 372.58C440.861 373.3 441.881 374.32 442.631 375.64C443.411 376.96 443.801 378.49 443.801 380.23C443.801 383.05 442.676 385.975 440.426 389.005C438.326 391.885 435.656 395.14 432.416 398.77L431.066 400.3H440.201C441.761 400.3 442.931 400.075 443.711 399.625C444.491 399.145 445.016 398.68 445.286 398.23L444.431 403H426.521L430.031 398.815ZM447.422 388.375C447.422 385.015 447.827 382.06 448.637 379.51C449.447 376.93 450.557 374.95 451.967 373.57C453.407 372.19 455.027 371.5 456.827 371.5C458.597 371.5 460.187 372.1 461.597 373.3C463.007 374.5 464.117 376.24 464.927 378.52C465.737 380.8 466.142 383.515 466.142 386.665C466.142 390.025 465.737 392.995 464.927 395.575C464.117 398.125 462.992 400.09 461.552 401.47C460.142 402.85 458.537 403.54 456.737 403.54C454.967 403.54 453.377 402.94 451.967 401.74C450.557 400.54 449.447 398.8 448.637 396.52C447.827 394.24 447.422 391.525 447.422 388.375ZM462.902 388.87C462.902 385.57 462.617 382.735 462.047 380.365C461.477 377.995 460.697 376.21 459.707 375.01C458.717 373.78 457.607 373.15 456.377 373.12C455.267 373.12 454.277 373.66 453.407 374.74C452.537 375.82 451.862 377.35 451.382 379.33C450.902 381.28 450.662 383.56 450.662 386.17C450.662 389.47 450.947 392.305 451.517 394.675C452.087 397.045 452.867 398.845 453.857 400.075C454.847 401.305 455.957 401.92 457.187 401.92C458.297 401.92 459.287 401.38 460.157 400.3C461.027 399.22 461.702 397.705 462.182 395.755C462.662 393.775 462.902 391.48 462.902 388.87ZM471.08 398.815C473.66 395.725 475.505 393.49 476.615 392.11C477.755 390.7 478.685 389.38 479.405 388.15C480.185 386.83 480.74 385.57 481.07 384.37C481.43 383.14 481.61 381.895 481.61 380.635C481.61 379.285 481.34 378.13 480.8 377.17C480.26 376.18 479.54 375.43 478.64 374.92C477.77 374.41 476.825 374.155 475.805 374.155C473.915 374.155 472.385 374.845 471.215 376.225C470.075 377.605 469.505 379.345 469.505 381.445C468.965 380.695 468.695 379.705 468.695 378.475C468.695 377.335 468.98 376.225 469.55 375.145C470.15 374.065 471.035 373.195 472.205 372.535C473.375 371.845 474.785 371.5 476.435 371.5C477.965 371.5 479.36 371.86 480.62 372.58C481.91 373.3 482.93 374.32 483.68 375.64C484.46 376.96 484.85 378.49 484.85 380.23C484.85 383.05 483.725 385.975 481.475 389.005C479.375 391.885 476.705 395.14 473.465 398.77L472.115 400.3H481.25C482.81 400.3 483.98 400.075 484.76 399.625C485.54 399.145 486.065 398.68 486.335 398.23L485.48 403H467.57L471.08 398.815ZM498.281 385.45C500.591 386.02 502.346 387.085 503.546 388.645C504.776 390.175 505.391 391.9 505.391 393.82C505.391 395.53 504.986 397.135 504.176 398.635C503.396 400.105 502.241 401.29 500.711 402.19C499.211 403.09 497.441 403.54 495.401 403.54C493.811 403.54 492.461 403.33 491.351 402.91C490.271 402.49 489.161 401.92 488.021 401.2V397.6C488.531 398.71 489.461 399.685 490.811 400.525C492.161 401.365 493.661 401.785 495.311 401.785C497.501 401.785 499.181 401.125 500.351 399.805C501.551 398.455 502.151 396.79 502.151 394.81C502.151 392.47 501.431 390.67 499.991 389.41C498.551 388.15 496.736 387.52 494.546 387.52H493.691V386.8C495.671 386.11 497.276 385.135 498.506 383.875C499.736 382.585 500.351 381.1 500.351 379.42C500.351 377.89 499.901 376.645 499.001 375.685C498.131 374.695 496.916 374.2 495.356 374.2C494.396 374.2 493.496 374.44 492.656 374.92C491.816 375.4 491.126 376.105 490.586 377.035C490.076 377.935 489.821 379.015 489.821 380.275C489.281 379.555 489.011 378.64 489.011 377.53C489.011 375.7 489.686 374.245 491.036 373.165C492.386 372.055 494.006 371.5 495.896 371.5C497.966 371.5 499.706 372.1 501.116 373.3C502.526 374.5 503.231 376.12 503.231 378.16C503.231 379.48 502.781 380.815 501.881 382.165C501.011 383.515 499.811 384.61 498.281 385.45Z" fill="white"/>
</svg>
